<svg width="41" height="30" viewBox="0 0 41 30" fill="none" xmlns="http://www.w3.org/2000/svg">
<path fill-rule="evenodd" clip-rule="evenodd" d="M27.6863 0.857762L40.4142 13.5857C41.1953 14.3667 41.1953 15.6331 40.4142 16.4141L27.6863 29.142C26.9052 29.9231 25.6389 29.9231 24.8579 29.142C24.0768 28.361 24.0768 27.0947 24.8579 26.3136L34.1716 16.9999L2 16.9999C0.895429 16.9999 -1.38412e-06 16.1045 -1.28756e-06 14.9999C-1.19099e-06 13.8953 0.895429 12.9999 2 12.9999L34.1716 12.9999L24.8579 3.68619C24.0768 2.90514 24.0768 1.63881 24.8579 0.857761C25.6389 0.0767127 26.9052 0.0767128 27.6863 0.857762Z" fill="black"/>
</svg>
