<svg width="73" height="30" viewBox="0 0 73 30" fill="none" xmlns="http://www.w3.org/2000/svg">
<path fill-rule="evenodd" clip-rule="evenodd" d="M59.6863 0.857874L72.4142 13.5858C73.1953 14.3668 73.1953 15.6332 72.4142 16.4142L59.6863 29.1421C58.9052 29.9232 57.6389 29.9232 56.8579 29.1421C56.0768 28.3611 56.0768 27.0948 56.8579 26.3137L66.1716 17L2 17C0.895432 17 1.82543e-06 16.1046 1.69808e-06 15C1.57073e-06 13.8954 0.895432 13 2 13L66.1716 13L56.8579 3.6863C56.0768 2.90525 56.0768 1.63892 56.8579 0.857875C57.6389 0.0768259 58.9052 0.0768257 59.6863 0.857874Z" fill="white"/>
</svg>
