<?xml version="1.0" encoding="UTF-8" standalone="no"?>
<!DOCTYPE svg PUBLIC "-//W3C//DTD SVG 1.1//EN" "http://www.w3.org/Graphics/SVG/1.1/DTD/svg11.dtd">
<svg xmlns="http://www.w3.org/2000/svg" version="1.1" viewBox="0 0 196 138">
<path fill="#000000" d="
  M 33.71 67.00
  L 54.25 67.00
  A 1.00 1.00 0.0 0 1 55.25 68.00
  L 55.25 78.00
  A 1.00 1.00 0.0 0 1 54.25 79.00
  L 8.75 79.00
  A 1.00 1.00 0.0 0 1 7.75 78.00
  L 7.75 72.99
  A 1.03 1.01 -22.8 0 1 8.05 72.27
  Q 16.91 63.63 25.48 54.72
  C 31.68 48.26 47.02 34.31 39.89 25.29
  C 33.66 17.40 23.02 22.71 22.69 32.03
  A 1.00 1.00 0.0 0 1 21.69 33.00
  L 10.74 33.00
  A 1.00 0.99 -87.6 0 1 9.75 31.92
  Q 10.04 28.23 11.19 24.61
  C 17.14 5.95 44.49 2.83 52.74 21.33
  C 57.95 33.01 50.73 45.82 42.81 54.57
  Q 38.13 59.74 32.98 65.32
  Q 31.43 67.00 33.71 67.00
  Z"
/>
<path fill="#000000" d="
  M 160.37 65.31
  Q 158.78 67.00 161.10 67.00
  L 181.75 67.00
  A 1.00 1.00 0.0 0 1 182.75 68.00
  L 182.75 78.00
  A 1.00 1.00 0.0 0 1 181.75 79.00
  L 136.25 79.00
  A 1.00 1.00 0.0 0 1 135.25 78.00
  L 135.25 73.05
  A 1.02 0.98 68.2 0 1 135.54 72.34
  Q 148.08 59.73 160.41 46.92
  C 164.48 42.70 169.93 35.00 168.90 29.16
  C 167.65 22.09 159.15 19.42 153.81 23.80
  Q 150.18 26.77 149.94 32.05
  A 1.00 0.99 1.2 0 1 148.94 33.00
  L 138.06 33.00
  A 1.00 1.00 0.0 0 1 137.06 31.90
  C 140.76 -3.74 190.63 5.73 180.65 37.10
  Q 177.68 46.46 170.91 53.92
  Q 165.64 59.75 160.37 65.31
  Z"
/>
<path fill="#000000" d="
  M 94.99 56.01
  L 79.79 78.80
  A 0.44 0.44 0.0 0 1 79.42 79.00
  L 65.45 78.99
  A 0.44 0.44 0.0 0 1 65.09 78.31
  L 87.39 44.27
  A 0.44 0.44 0.0 0 0 87.39 43.79
  L 66.38 11.68
  A 0.44 0.44 0.0 0 1 66.74 11.00
  L 80.78 11.00
  A 0.44 0.44 0.0 0 1 81.15 11.20
  L 125.36 78.31
  A 0.44 0.44 0.0 0 1 124.99 78.99
  L 110.97 79.00
  A 0.44 0.44 0.0 0 1 110.60 78.80
  L 95.72 56.02
  A 0.44 0.44 0.0 0 0 94.99 56.01
  Z"
/>
<path fill="#000000" d="
  M 100.62 24.10
  C 103.46 19.92 106.19 15.44 109.25 11.40
  A 1.00 0.98 -71.1 0 1 110.04 11.00
  L 122.63 11.00
  Q 124.48 11.00 123.46 12.55
  L 108.83 34.85
  A 1.00 1.00 0.0 0 1 107.17 34.86
  L 100.62 25.22
  A 1.00 1.00 0.0 0 1 100.62 24.10
  Z"
/>
<path fill="#000000" d="
  M 72.35 97.74
  L 70.39 97.75
  A 1.00 0.99 5.4 0 1 69.40 96.56
  L 69.74 94.81
  A 1.01 1.00 5.6 0 1 70.73 94.00
  L 78.97 94.00
  A 1.00 1.00 0.0 0 1 79.93 95.30
  Q 76.82 105.02 67.45 104.60
  C 50.94 103.86 61.22 77.73 77.03 84.76
  Q 82.90 87.37 77.13 89.77
  A 1.01 1.00 54.6 0 1 76.06 89.58
  C 69.67 83.58 59.00 93.19 64.82 99.13
  Q 68.06 102.45 72.87 99.60
  Q 76.06 97.70 72.35 97.74
  Z"
/>
<path fill="#000000" d="
  M 9.08 96.67
  Q 10.27 90.74 11.41 84.81
  A 1.00 0.99 5.2 0 1 12.39 84.00
  C 18.60 84.03 26.80 83.74 25.67 92.82
  Q 23.95 106.64 8.75 104.04
  A 1.01 1.01 0.0 0 1 7.93 102.88
  Q 8.45 99.83 9.08 96.67
  Z
  M 20.60 96.23
  Q 23.99 87.99 15.70 88.09
  A 1.01 1.00 -84.7 0 0 14.73 88.90
  L 12.80 99.02
  A 1.01 1.01 0.0 0 0 13.73 100.21
  Q 18.84 100.49 20.60 96.23
  Z"
/>
<rect fill="#000000" x="-1.96" y="-10.34" transform="translate(42.45,94.13) rotate(11.0)" width="3.92" height="20.68" rx="0.27"/>
<rect fill="#000000" x="-1.96" y="-10.36" transform="translate(96.98,94.13) rotate(11.0)" width="3.92" height="20.72" rx="0.64"/>
<path fill="#000000" d="
  M 145.51 96.25
  L 147.33 96.25
  A 1.00 0.99 87.4 0 0 148.32 95.16
  Q 148.05 92.11 149.88 89.70
  Q 151.23 87.91 151.66 90.11
  L 154.16 103.06
  A 1.00 1.00 0.0 0 1 153.18 104.25
  L 150.95 104.25
  A 1.00 0.99 -4.0 0 1 149.96 103.40
  L 149.61 101.10
  A 0.99 0.99 0.0 0 0 148.63 100.25
  L 142.03 100.25
  A 1.01 0.99 15.3 0 0 141.17 100.73
  L 139.36 103.76
  A 1.00 1.00 0.0 0 1 138.50 104.25
  L 136.52 104.25
  Q 134.78 104.26 135.66 102.75
  L 146.25 84.50
  A 1.01 1.00 15.0 0 1 147.12 84.00
  L 149.22 84.00
  Q 150.96 84.00 150.08 85.50
  L 144.65 94.75
  Q 143.76 96.26 145.51 96.25
  Z"
/>
<path fill="#000000" d="
  M 179.26 101.20
  L 178.76 103.78
  A 0.59 0.59 0.0 0 1 178.18 104.26
  L 169.86 104.24
  A 0.59 0.59 0.0 0 1 169.29 103.54
  L 172.98 84.48
  A 0.59 0.59 0.0 0 1 173.56 84.00
  L 176.35 84.00
  A 0.59 0.59 0.0 0 1 176.93 84.70
  L 173.97 99.80
  A 0.59 0.59 0.0 0 0 174.55 100.50
  L 178.68 100.50
  A 0.59 0.59 0.0 0 1 179.26 101.20
  Z"
/>
<path fill="#000000" d="
  M 117.29 88.27
  L 116.11 88.19
  A 1.01 1.00 -83.5 0 1 115.19 87.02
  L 115.52 85.08
  A 1.01 1.00 4.7 0 1 116.51 84.25
  L 125.77 84.25
  A 1.01 1.00 87.2 0 1 126.77 85.16
  Q 127.10 88.83 123.61 88.26
  A 0.99 0.99 0.0 0 0 122.47 89.05
  L 119.65 103.45
  A 1.00 0.99 5.9 0 1 118.66 104.25
  L 116.53 104.25
  A 1.00 1.00 0.0 0 1 115.55 103.06
  L 118.21 89.45
  A 1.00 1.00 0.0 0 0 117.29 88.27
  Z"
/>
<path fill="#000000" d="
  M 54.91 124.28
  C 56.40 123.34 55.67 122.46 53.96 122.76
  Q 49.18 123.60 51.28 119.54
  A 0.99 0.98 13.1 0 1 52.16 119.00
  L 60.41 119.00
  A 1.00 0.99 -80.6 0 1 61.35 120.32
  Q 58.04 130.16 48.58 129.58
  C 41.52 129.14 38.79 122.99 41.37 116.94
  C 44.17 110.39 52.33 106.04 59.27 110.09
  Q 63.12 112.32 58.77 114.78
  A 1.01 1.00 -39.4 0 1 57.63 114.67
  C 51.35 109.34 41.17 116.92 45.60 123.30
  Q 48.91 128.05 54.91 124.28
  Z"
/>
<path fill="#000000" d="
  M 137.89 115.11
  C 131.49 121.82 139.09 129.43 145.64 124.35
  Q 148.19 122.38 149.31 125.19
  A 1.02 1.01 -32.1 0 1 149.05 126.30
  C 142.07 132.59 128.19 130.19 131.88 118.12
  C 134.19 110.58 145.15 104.30 151.82 111.93
  A 1.00 1.00 0.0 0 1 151.72 113.35
  L 150.02 114.81
  A 1.00 0.99 43.2 0 1 148.76 114.84
  Q 142.64 110.12 137.89 115.11
  Z"
/>
<path fill="#000000" d="
  M 18.29 121.25
  L 20.12 121.25
  A 0.99 0.99 0.0 0 0 21.11 120.19
  Q 20.92 117.15 22.62 114.68
  Q 23.97 112.72 24.42 115.06
  L 26.95 128.04
  A 1.00 1.00 0.0 0 1 25.98 129.23
  L 23.71 129.26
  A 1.01 1.01 0.0 0 1 22.71 128.40
  L 22.36 126.10
  A 0.99 0.99 0.0 0 0 21.38 125.25
  L 14.85 125.25
  A 0.99 0.99 0.0 0 0 14.00 125.73
  L 12.15 128.77
  A 0.99 0.99 0.0 0 1 11.30 129.25
  L 9.29 129.26
  Q 7.54 129.26 8.42 127.75
  L 19.04 109.54
  A 1.00 1.00 0.0 0 1 19.90 109.05
  L 21.94 109.05
  Q 23.68 109.05 22.80 110.55
  L 17.43 119.75
  Q 16.55 121.25 18.29 121.25
  Z"
/>
<path fill="#000000" d="
  M 79.36 125.25
  L 84.95 125.25
  A 0.59 0.59 0.0 0 1 85.53 125.94
  L 85.03 128.76
  A 0.59 0.59 0.0 0 1 84.45 129.25
  L 74.53 129.25
  A 0.59 0.59 0.0 0 1 73.96 128.55
  L 77.63 109.48
  A 0.59 0.59 0.0 0 1 78.21 109.00
  L 88.18 109.00
  A 0.59 0.59 0.0 0 1 88.75 109.72
  L 88.09 112.54
  A 0.59 0.59 0.0 0 1 87.51 113.00
  L 81.49 113.00
  A 0.59 0.59 0.0 0 0 80.91 113.47
  L 80.24 116.54
  A 0.59 0.59 0.0 0 0 80.82 117.25
  L 86.55 117.25
  A 0.59 0.59 0.0 0 1 87.13 117.96
  L 86.59 120.53
  A 0.59 0.59 0.0 0 1 86.01 121.00
  L 79.80 121.00
  A 0.59 0.59 0.0 0 0 79.22 121.51
  L 78.78 124.58
  A 0.59 0.59 0.0 0 0 79.36 125.25
  Z"
/>
<path fill="#000000" d="
  M 115.45 109.00
  L 118.89 109.00
  A 0.34 0.34 0.0 0 1 119.22 109.40
  L 115.41 128.97
  A 0.34 0.34 0.0 0 1 115.07 129.24
  L 111.66 129.18
  A 0.34 0.34 0.0 0 1 111.36 128.99
  L 105.97 117.40
  A 0.34 0.34 0.0 0 0 105.33 117.48
  L 103.23 128.97
  A 0.34 0.34 0.0 0 1 102.90 129.25
  L 99.54 129.25
  A 0.34 0.34 0.0 0 1 99.21 128.84
  L 103.04 109.27
  A 0.34 0.34 0.0 0 1 103.37 109.00
  L 106.66 109.00
  A 0.34 0.34 0.0 0 1 106.97 109.20
  L 112.26 121.03
  A 0.34 0.34 0.0 0 0 112.90 120.95
  L 115.12 109.28
  A 0.34 0.34 0.0 0 1 115.45 109.00
  Z"
/>
<path fill="#000000" d="
  M 169.34 120.89
  Q 169.38 120.64 169.31 120.39
  L 166.16 110.55
  A 1.00 0.99 81.3 0 1 167.11 109.25
  L 169.36 109.25
  A 1.01 1.01 0.0 0 1 170.31 109.92
  Q 171.77 114.13 172.98 118.40
  C 173.91 121.64 172.55 125.13 172.03 128.38
  A 1.02 1.01 4.1 0 1 171.05 129.22
  L 168.98 129.25
  A 1.00 0.99 4.9 0 1 167.98 128.07
  L 169.34 120.89
  Z"
/>
<path fill="#000000" d="
  M 176.44 110.44
  Q 178.00 108.91 179.95 109.16
  A 1.00 1.00 0.0 0 1 180.64 110.74
  L 176.60 116.37
  Q 175.52 117.87 174.85 116.15
  Q 173.68 113.12 176.44 110.44
  Z"
/>
</svg>
